<svg xmlns="http://www.w3.org/2000/svg" viewBox="0 0 1000 760" font-family="Arial, sans-serif">
<rect x="0" y="0" width="1000" height="760" fill="#1c1022"/>
<rect x="40" y="70" width="920" height="600" fill="#140d1c" stroke="#CA88F1" stroke-width="4" rx="6"/>
<text x="500.0" y="48" text-anchor="middle" font-size="17" font-weight="bold" fill="#6b6478" letter-spacing="3">UPSTAGE  /  FUNDO DO PALCO</text>
<text x="500.0" y="708" text-anchor="middle" font-size="17" font-weight="bold" fill="#6b6478" letter-spacing="3">DOWNSTAGE  /  FRENTE  •  PLATEIA</text>
<g><rect x="788" y="140" width="84" height="58" fill="#CA88F1" stroke="#0b0a0d" stroke-width="2.5" rx="4"/><line x1="798" y1="154.5" x2="862" y2="154.5" stroke="#0b0a0d" stroke-width="1" opacity="0.35"/><line x1="798" y1="169.0" x2="862" y2="169.0" stroke="#0b0a0d" stroke-width="1" opacity="0.35"/><line x1="798" y1="183.5" x2="862" y2="183.5" stroke="#0b0a0d" stroke-width="1" opacity="0.35"/><text x="830.0" y="214" text-anchor="middle" font-size="12" font-weight="bold" fill="#f3eef7">Guitarra Solo</text><circle cx="864" cy="132" r="13" fill="#8cfa8c" stroke="#0b0a0d" stroke-width="2"/><text x="864" y="136.5" text-anchor="middle" font-size="13" font-weight="bold" fill="#0b0a0d">5</text></g>
<g><rect x="358" y="140" width="84" height="58" fill="#CA88F1" stroke="#0b0a0d" stroke-width="2.5" rx="4"/><line x1="368" y1="154.5" x2="432" y2="154.5" stroke="#0b0a0d" stroke-width="1" opacity="0.35"/><line x1="368" y1="169.0" x2="432" y2="169.0" stroke="#0b0a0d" stroke-width="1" opacity="0.35"/><line x1="368" y1="183.5" x2="432" y2="183.5" stroke="#0b0a0d" stroke-width="1" opacity="0.35"/><text x="400.0" y="214" text-anchor="middle" font-size="12" font-weight="bold" fill="#f3eef7">Baixo</text><circle cx="434" cy="132" r="13" fill="#8cfa8c" stroke="#0b0a0d" stroke-width="2"/><text x="434" y="136.5" text-anchor="middle" font-size="13" font-weight="bold" fill="#0b0a0d">7</text></g>
<g><rect x="148" y="140" width="84" height="58" fill="#CA88F1" stroke="#0b0a0d" stroke-width="2.5" rx="4"/><line x1="158" y1="154.5" x2="222" y2="154.5" stroke="#0b0a0d" stroke-width="1" opacity="0.35"/><line x1="158" y1="169.0" x2="222" y2="169.0" stroke="#0b0a0d" stroke-width="1" opacity="0.35"/><line x1="158" y1="183.5" x2="222" y2="183.5" stroke="#0b0a0d" stroke-width="1" opacity="0.35"/><text x="190.0" y="214" text-anchor="middle" font-size="12" font-weight="bold" fill="#f3eef7">Guitarra Base</text><circle cx="224" cy="132" r="13" fill="#8cfa8c" stroke="#0b0a0d" stroke-width="2"/><text x="224" y="136.5" text-anchor="middle" font-size="13" font-weight="bold" fill="#0b0a0d">6</text></g>
<g><circle cx="600" cy="192" r="26" fill="#6b6478" stroke="#f3eef7" stroke-width="2.5"/><text x="600" y="196" text-anchor="middle" font-size="10" font-weight="bold" fill="#0b0a0d">KICK</text><circle cx="566" cy="168" r="15" fill="#9a90ab" stroke="#f3eef7" stroke-width="2"/><text x="566" y="172" text-anchor="middle" font-size="8" font-weight="bold" fill="#0b0a0d">SN</text><circle cx="592" cy="140" r="13" fill="#9a90ab" stroke="#f3eef7" stroke-width="2"/><circle cx="622" cy="144" r="13" fill="#9a90ab" stroke="#f3eef7" stroke-width="2"/><circle cx="548" cy="136" r="17" fill="none" stroke="#f3eef7" stroke-width="1.5"/><circle cx="650" cy="140" r="19" fill="none" stroke="#f3eef7" stroke-width="1.5"/><circle cx="542" cy="178" r="12" fill="none" stroke="#f3eef7" stroke-width="1.5"/><text x="600" y="232" text-anchor="middle" font-size="12" font-weight="bold" fill="#f3eef7">BATERIA</text><circle cx="690" cy="130" r="13" fill="#8cfa8c" stroke="#0b0a0d" stroke-width="2"/><text x="690" y="134.5" text-anchor="middle" font-size="13" font-weight="bold" fill="#0b0a0d">8</text></g>
<g><circle cx="830" cy="320" r="30" fill="#CA88F1"/><text x="830" y="324" text-anchor="middle" font-size="12" font-weight="bold" fill="#0b0a0d">GUIT.</text><text x="830" y="368" text-anchor="middle" font-size="11" fill="#6b6478">solo</text></g>
<g><circle cx="400" cy="320" r="30" fill="#CA88F1"/><text x="400" y="324" text-anchor="middle" font-size="12" font-weight="bold" fill="#0b0a0d">BAIXO</text></g>
<g><circle cx="190" cy="320" r="30" fill="#CA88F1"/><text x="190" y="324" text-anchor="middle" font-size="12" font-weight="bold" fill="#0b0a0d">GUIT.</text><text x="190" y="368" text-anchor="middle" font-size="11" fill="#6b6478">base</text></g>
<g><circle cx="600" cy="450" r="30" fill="#CA88F1"/><text x="600" y="454" text-anchor="middle" font-size="12" font-weight="bold" fill="#0b0a0d">VOCAL</text><text x="600" y="498" text-anchor="middle" font-size="11" fill="#6b6478">à frente do palco</text></g>
<g><line x1="600" y1="520" x2="600" y2="546" stroke="#f3eef7" stroke-width="3"/><circle cx="600" cy="520" r="11" fill="#0b0a0d" stroke="#f3eef7" stroke-width="3"/><circle cx="600" cy="520" r="4" fill="#8cfa8c"/><text x="600" y="565" text-anchor="middle" font-size="11" font-weight="bold" fill="#f3eef7">Mic vocal</text><circle cx="616" cy="506" r="13" fill="#8cfa8c" stroke="#0b0a0d" stroke-width="2"/><text x="616" y="510.5" text-anchor="middle" font-size="13" font-weight="bold" fill="#0b0a0d">1</text></g>
<g><line x1="830" y1="510" x2="830" y2="536" stroke="#f3eef7" stroke-width="3"/><circle cx="830" cy="510" r="11" fill="#0b0a0d" stroke="#f3eef7" stroke-width="3"/><circle cx="830" cy="510" r="4" fill="#8cfa8c"/><text x="830" y="555" text-anchor="middle" font-size="11" font-weight="bold" fill="#f3eef7">Backing — guit. solo</text><circle cx="846" cy="496" r="13" fill="#8cfa8c" stroke="#0b0a0d" stroke-width="2"/><text x="846" y="500.5" text-anchor="middle" font-size="13" font-weight="bold" fill="#0b0a0d">2</text></g>
<g><line x1="190" y1="510" x2="190" y2="536" stroke="#f3eef7" stroke-width="3"/><circle cx="190" cy="510" r="11" fill="#0b0a0d" stroke="#f3eef7" stroke-width="3"/><circle cx="190" cy="510" r="4" fill="#8cfa8c"/><text x="190" y="555" text-anchor="middle" font-size="11" font-weight="bold" fill="#f3eef7">Backing — guit. base</text><circle cx="206" cy="496" r="13" fill="#8cfa8c" stroke="#0b0a0d" stroke-width="2"/><text x="206" y="500.5" text-anchor="middle" font-size="13" font-weight="bold" fill="#0b0a0d">3</text></g>
<g><line x1="485" y1="146" x2="485" y2="172" stroke="#f3eef7" stroke-width="3"/><circle cx="485" cy="146" r="11" fill="#0b0a0d" stroke="#f3eef7" stroke-width="3"/><circle cx="485" cy="146" r="4" fill="#8cfa8c"/><text x="485" y="191" text-anchor="middle" font-size="11" font-weight="bold" fill="#f3eef7">Backing — bateria</text><circle cx="501" cy="132" r="13" fill="#8cfa8c" stroke="#0b0a0d" stroke-width="2"/><text x="501" y="136.5" text-anchor="middle" font-size="13" font-weight="bold" fill="#0b0a0d">4</text></g>
<polygon points="100,678 160,678 148,708 112,708" fill="#CA88F1" stroke="#0b0a0d" stroke-width="2"/>
<text x="130" y="698" text-anchor="middle" font-size="11" font-weight="bold" fill="#0b0a0d">PA</text>
<polygon points="840,678 900,678 888,708 852,708" fill="#CA88F1" stroke="#0b0a0d" stroke-width="2"/>
<text x="870" y="698" text-anchor="middle" font-size="11" font-weight="bold" fill="#0b0a0d">PA</text>
<text x="60" y="94" text-anchor="middle" font-size="20" fill="#8cfa8c">⚡</text>
<text x="60" y="114" text-anchor="middle" font-size="9" fill="#6b6478">POWER</text>
<text x="940" y="94" text-anchor="middle" font-size="20" fill="#8cfa8c">⚡</text>
<text x="940" y="114" text-anchor="middle" font-size="9" fill="#6b6478">POWER</text>
</svg>